<?xml version="1.0" encoding="UTF-8"?>
<svg xmlns="http://www.w3.org/2000/svg" xmlns:xlink="http://www.w3.org/1999/xlink" width="1024pt" height="1024pt" viewBox="0 0 1024 1024" version="1.1">
<g id="surface1">
<path style=" stroke:none;fill-rule:nonzero;fill:rgb(0%,0%,0%);fill-opacity:1;" d="M 0 512 L 0 1024 L 1024 1024 L 1024 0 L 0 0 Z M 435.957031 186.199219 C 437.585938 191.398438 445.042969 199.433594 450.101562 201.4375 L 454.300781 203.101562 L 450.25 205.101562 C 448.050781 206.1875 444.511719 208.734375 442.5 210.679688 C 438.898438 214.160156 434.054688 222.914062 434.015625 226 C 434.007812 226.828125 432.957031 225 431.667969 221.898438 C 428.375 214 424.289062 209.335938 417.800781 206.070312 L 412.101562 203.199219 L 416.699219 201.472656 C 422.691406 199.21875 427.980469 193.800781 431.023438 186.800781 C 432.371094 183.699219 433.796875 181.417969 434.148438 181.800781 C 434.503906 182.179688 435.332031 184.199219 435.957031 186.199219 Z M 601.800781 187.773438 C 605 190.550781 605.410156 193.582031 602.898438 195.90625 C 600.199219 198.410156 597.308594 198.542969 594.800781 196.28125 C 592.558594 194.257812 592.484375 190.199219 594.644531 187.800781 C 596.695312 185.523438 599.199219 185.515625 601.800781 187.773438 Z M 554.449219 190.199219 C 555.289062 191.390625 556 194.101562 556 196.101562 L 556 199.800781 L 560.601562 199.644531 C 565.601562 199.480469 568 201.410156 568 205.601562 C 568 209.152344 565.398438 211 560.398438 211 L 556 211 L 556 214.699219 C 556 221 550.96875 224.074219 546.800781 220.320312 C 545.632812 219.269531 545 217.351562 545 214.851562 L 545 211 L 539.5 211 C 533.601562 211 532 209.636719 532 204.601562 C 532 201.367188 534.5 200 540.398438 200 L 545 200 L 545 195.601562 C 545 190.601562 546.882812 188 550.5 188 C 551.800781 188 553.609375 189.007812 554.449219 190.199219 Z M 366.800781 195.734375 C 368.609375 197.257812 368.941406 198.851562 369.199219 207.25 L 369.5 217 L 377.199219 217 C 384.300781 217 385.058594 217.203125 386.925781 219.601562 C 389.496094 222.898438 389.515625 224.484375 387 227 C 385.324219 228.675781 383.699219 229 377 229 L 369 229 L 369 246.5 C 369 262.699219 368.851562 264.148438 367 266 C 364.5 268.5 360.730469 268.546875 358.519531 266.101562 C 357.015625 264.4375 356.820312 262 356.949219 246.601562 L 357.101562 229 L 349.800781 229 C 341.898438 229 340.917969 228.660156 339.128906 225.300781 C 338.21875 223.601562 338.179688 222.476562 338.96875 221 C 340.59375 217.945312 343.300781 217 350.398438 217 L 357 217 L 357 207.800781 C 357 198 357.265625 197.050781 360.5 195.222656 C 363.300781 193.640625 364.410156 193.730469 366.800781 195.734375 Z M 516 201 C 518.703125 203.703125 518.601562 208.519531 515.800781 210.46875 C 514.097656 211.652344 510.851562 212 501.449219 212 C 490.148438 212 489.160156 211.84375 487.300781 209.75 C 486.234375 208.550781 484.984375 206.941406 484.621094 206.300781 C 483.886719 204.996094 485.601562 200.949219 487.398438 199.738281 C 488.003906 199.335938 494.25 199 501.25 199 C 512.648438 199 514.210938 199.210938 516 201 Z M 685.101562 223.625 C 687.605469 225.886719 687.5 231.226562 684.898438 233.589844 C 682.917969 235.390625 680.949219 235.480469 650.148438 235.148438 C 622.25 234.851562 617.253906 234.578125 615.800781 233.28125 C 613.585938 231.304688 613.519531 226.199219 615.679688 223.800781 C 617.1875 222.125 619.601562 222 650.300781 222 C 679.601562 222 683.503906 222.183594 685.101562 223.625 Z M 315.5 233.609375 C 319.101562 235.96875 319.761719 240.589844 316.925781 243.601562 C 313.914062 246.800781 308.726562 246.898438 306.554688 243.800781 C 304.382812 240.699219 304.578125 236.421875 307 234 C 309.425781 231.574219 312.199219 231.449219 315.5 233.609375 Z M 541 243.527344 C 573.898438 248.503906 622.519531 265.5 629.308594 274.398438 C 639.695312 288.011719 629.800781 305.660156 613.800781 302.066406 C 611.425781 301.53125 606.101562 299.527344 601.898438 297.585938 C 582.195312 288.476562 553.699219 280.191406 532.699219 277.460938 C 521 275.941406 486.792969 274.910156 487.527344 276.101562 C 487.734375 276.433594 484.800781 276.992188 480.898438 277.363281 C 473.417969 278.074219 454.101562 282.019531 445 284.699219 C 434.800781 287.703125 413.578125 295.269531 407 298.253906 C 403.101562 300.019531 398.101562 301.398438 394.5 301.699219 C 389.300781 302.132812 388.03125 301.882812 385 299.824219 C 375.035156 293.0625 375.898438 276.886719 386.601562 269.910156 C 402.835938 259.328125 449.199219 246.007812 485 241.640625 C 492.628906 240.710938 530.898438 241.996094 541 243.527344 Z M 727.898438 249.519531 C 736.601562 251.59375 743.046875 255.296875 749.109375 261.699219 C 756.058594 269.039062 760.222656 278.300781 760.800781 287.699219 C 761.703125 302.300781 757.75 313.242188 747.824219 323.601562 C 739.816406 331.953125 732.601562 335.214844 720.800781 335.796875 C 706.601562 336.503906 696.578125 332.730469 687.0625 323.101562 C 663.089844 298.839844 674.199219 258.425781 707.300781 249.492188 C 714.105469 247.652344 720.101562 247.660156 727.898438 249.519531 Z M 282.800781 267.503906 C 298.199219 271.160156 312.699219 281.785156 322.109375 296.300781 C 329.386719 307.527344 332.855469 323.800781 330.933594 337.699219 C 328.640625 354.300781 323.011719 365.835938 311.570312 377.398438 C 285.433594 403.808594 239.984375 401.199219 217.507812 372 C 207.824219 359.417969 203.542969 346.300781 203.636719 329.5 C 203.6875 320.398438 204.164062 317.085938 206.382812 310.300781 C 213.144531 289.609375 230.199219 273.511719 251.199219 268 C 260.101562 265.664062 274.121094 265.445312 282.800781 267.503906 Z M 653.898438 307.460938 C 657.601562 309.382812 659.703125 314.261719 658.222656 317.5 C 656.53125 321.199219 652.683594 323.328125 649.101562 322.546875 C 646 321.871094 642 317.84375 642 315.398438 C 642 312.5 644.652344 308.636719 647.5 307.390625 C 651.101562 305.8125 650.722656 305.808594 653.898438 307.460938 Z M 362 309 C 367.546875 314.546875 359.898438 322.328125 353.5 317.652344 C 351.371094 316.097656 351.078125 310.898438 352.992188 308.601562 C 354.828125 306.386719 359.601562 306.601562 362 309 Z M 793.300781 316.085938 C 796.351562 317.484375 799 322 799 325.800781 C 799 331.898438 791.96875 336.585938 786.800781 333.925781 C 779 329.914062 777.722656 324.078125 783.398438 318.398438 C 787.015625 314.785156 789.300781 314.25 793.300781 316.085938 Z M 445 336 C 449.546875 340.546875 446.199219 343.660156 436.5 343.910156 C 420.199219 344.328125 400.726562 349.097656 386.800781 356.074219 C 373.164062 362.90625 357.558594 376.800781 347.453125 391.101562 C 339.46875 402.394531 335.097656 413 331.320312 430.199219 C 329.632812 437.886719 329.5 444.699219 329.5 522.5 C 329.5 588 329.785156 608.042969 330.800781 613.5 C 331.515625 617.351562 332.730469 625.898438 333.5 632.5 C 334.269531 639.101562 335.148438 645.625 335.449219 647 C 335.933594 649.199219 335.886719 649.261719 335.050781 647.5 C 334.242188 645.800781 334.09375 645.753906 334.050781 647.199219 C 334.023438 648.101562 334.421875 649.160156 334.898438 649.449219 C 335.398438 649.753906 335.976562 651.601562 336.199219 653.601562 C 336.566406 656.898438 336.488281 657.050781 335.25 655.398438 C 333.152344 652.601562 325.527344 636.199219 323.675781 630.5 C 319.003906 616.113281 319 616 319 522.199219 C 319 450.199219 319.261719 432.257812 320.398438 426.898438 C 331.710938 373.542969 379.300781 334.554688 433.699219 334.082031 C 441.699219 334.011719 443.28125 334.28125 445 336 Z M 481.5 335.148438 C 484.699219 336.601562 485.816406 340.28125 483.699219 342.398438 C 481.867188 344.230469 464.101562 344.632812 460.898438 342.914062 C 458.332031 341.535156 458.5 337.414062 461.199219 335.519531 C 463.898438 333.628906 477.601562 333.378906 481.5 335.148438 Z M 632.5 347.996094 C 662.027344 355.554688 680.988281 377.199219 684.445312 407.300781 L 685.101562 413 L 655.449219 413 C 629.25 413 625.464844 412.800781 622.898438 411.285156 C 617.320312 407.988281 617 406 617 374.601562 L 617 346 L 620.851562 346 C 622.972656 346 628.199219 346.894531 632.5 347.996094 Z M 599 384.898438 L 599 409.800781 L 602.257812 416.101562 C 605.878906 423.101562 611.789062 428.335938 617.800781 429.859375 C 619.839844 430.378906 627.449219 431.113281 634.75 431.5 L 648 432.199219 L 648 530 L 672 530 L 672 563.25 C 672 581.550781 671.558594 600.636719 671.019531 605.699219 C 667.34375 640.300781 642.164062 672.675781 609.398438 684.945312 C 594.871094 690.386719 590.101562 690.910156 554.101562 691.007812 C 535.601562 691.058594 518.589844 691.078125 516.25 691.050781 L 512 691 L 512 662.5 L 475.25 662.449219 C 440.949219 662.402344 437.960938 662.257812 430.398438 660.277344 C 418.300781 657.109375 406.535156 651.195312 398 644.003906 C 391.300781 638.355469 390.675781 638.742188 396.800781 644.742188 C 398.800781 646.703125 398.839844 646.945312 397.25 647.398438 C 396.269531 647.679688 396.601562 647.8125 398 647.699219 C 399.898438 647.546875 400.429688 647.921875 400.199219 649.25 C 399.984375 650.515625 400.398438 650.804688 401.699219 650.300781 C 403.300781 649.679688 403.339844 649.796875 402.050781 651.351562 C 401.246094 652.320312 399.800781 652.898438 398.800781 652.648438 C 397.800781 652.398438 396.953125 652.710938 396.898438 653.351562 C 396.835938 654.085938 396.621094 654.050781 396.300781 653.25 C 396.019531 652.550781 395.402344 652.242188 394.898438 652.550781 C 394.410156 652.851562 394 652.601562 394 652 C 394 650.117188 392.496094 651 391.273438 653.601562 C 390.242188 655.800781 390.292969 655.945312 391.699219 654.800781 C 393.128906 653.636719 393.21875 653.75 392.550781 655.851562 C 391.878906 657.949219 392.023438 658.132812 393.898438 657.550781 C 395.761719 656.972656 396 657.300781 396 660.398438 C 396 664.027344 395 664.671875 390.300781 664.066406 C 389.558594 663.972656 388.25 664.351562 387.25 664.949219 C 385.808594 665.816406 385.949219 665.902344 388.050781 665.449219 C 389.75 665.082031 391.082031 665.46875 392.050781 666.601562 C 393.347656 668.117188 393.25 668.21875 391.148438 667.550781 L 388.800781 666.800781 L 391.101562 669.898438 C 392.359375 671.601562 393.941406 673 394.601562 673 C 395.285156 673 396.550781 673.277344 397.550781 673.648438 C 398.851562 674.132812 399.09375 673.941406 398.5 672.898438 C 398.042969 672.101562 398.085938 671.855469 398.601562 672.332031 C 400.027344 673.652344 399.800781 677.699219 398.300781 677.699219 C 397.097656 677.699219 396.574219 676.601562 396.875 674.699219 C 396.941406 674.273438 395.851562 674.039062 394.550781 674.199219 C 393.25 674.359375 392.121094 674.125 392.144531 673.699219 C 392.207031 672.519531 386.898438 667 385.699219 667 C 385.144531 667 385.792969 668.199219 387.15625 669.699219 C 392.53125 675.605469 380.261719 666.101562 373.085938 658.800781 C 361.179688 646.683594 352.90625 632.5 348.058594 615.898438 C 346.414062 610.261719 345.6875 604.101562 345.015625 590 C 343.847656 565.601562 343.796875 451.847656 344.949219 440.800781 C 346.515625 425.800781 352.296875 410.71875 360.941406 399.101562 C 366.59375 391.5 378.464844 379.785156 385 375.355469 C 394.976562 368.597656 410.601562 362.613281 422.199219 361.113281 C 425.664062 360.664062 466.851562 360.230469 513.75 360.148438 L 599 360 Z M 187.871094 367.398438 C 190.78125 370.484375 190.398438 373.675781 186.800781 376.332031 L 184 378.398438 L 181.199219 376.324219 C 177.601562 373.652344 177.148438 369.886719 180.101562 367.132812 C 183 364.425781 185.136719 364.5 187.871094 367.398438 Z M 819.601562 373.5 C 822.621094 376.523438 822.625 378.199219 819.609375 381.699219 L 817.199219 384.5 L 804.601562 384.199219 L 792 383.898438 L 792 390.398438 C 792 400.023438 792.398438 400.195312 814.101562 399.917969 C 831.199219 399.699219 831.3125 399.714844 833.15625 402.101562 C 835.707031 405.398438 835.441406 408.5 832.398438 410.882812 C 829.875 412.863281 828.398438 413 809.601562 413 C 791.898438 413 789.082031 412.777344 786 411.136719 C 780.535156 408.222656 778.65625 404 778.199219 393.601562 L 777.800781 384.5 L 755.398438 384.355469 C 731.898438 384.207031 730.722656 383.992188 729.027344 379.601562 C 728.0625 377.101562 730.277344 372.320312 732.699219 371.679688 C 733.6875 371.414062 753.101562 371.15625 775.800781 371.101562 L 817.101562 371 Z M 204.898438 411.464844 C 209.101562 413.636719 213.804688 419.457031 214.539062 423.398438 C 215.738281 429.800781 211.390625 438.632812 205.699219 441.355469 C 200.601562 443.792969 193.011719 443.515625 188.898438 440.742188 C 178.210938 433.535156 178.699219 417.878906 189.800781 412.023438 C 194.199219 409.699219 200.996094 409.449219 204.898438 411.464844 Z M 296.699219 415.171875 C 300.753906 419.003906 298.800781 425 293.5 425 C 291.398438 425 287 420.9375 287 419 C 287 417.398438 291.253906 413 292.800781 413 C 293.703125 413 295.398438 413.945312 296.699219 415.171875 Z M 270.398438 426.3125 C 272.246094 427.71875 274.820312 431 276.035156 433.5 C 278.757812 439.105469 278.539062 440.601562 271.65625 463.601562 C 264.769531 486.601562 263.808594 492.300781 263.066406 514.5 C 262.496094 531.601562 262.101562 535.167969 260.335938 539.101562 C 255.621094 549.601562 245.3125 557 235.398438 557 L 230.398438 557 L 236.222656 550.898438 C 242.652344 544.167969 248.4375 533.300781 250.007812 525 C 253.148438 508.398438 248.824219 492.925781 236.929688 478.199219 C 234.179688 474.800781 232 471.65625 232 471.101562 C 232 468.234375 241.605469 439.699219 244.21875 434.800781 C 250.144531 423.699219 261.9375 419.878906 270.398438 426.3125 Z M 756.199219 426.898438 C 758.285156 428.363281 761.175781 431.898438 762.824219 435 C 767.578125 443.945312 774.5625 466.699219 777.863281 484 C 781.765625 504.441406 782.492188 512.300781 782.445312 533.5 C 782.410156 550.601562 781.980469 556.914062 780.140625 567.5 C 774.992188 597.101562 767.292969 620.238281 754.351562 645 C 742.019531 668.601562 736.933594 673.625 726.199219 672.835938 C 719.5 672.34375 714.945312 669.460938 712.398438 664.101562 C 709.214844 657.398438 710.113281 652.699219 717.328125 638.398438 C 734.382812 604.601562 743.089844 576.746094 746.054688 546.5 C 748.546875 521.089844 745.121094 497.800781 732.605469 455.101562 C 730.613281 448.300781 729 441.636719 729 440.199219 C 729 435.898438 732.898438 429.207031 736.800781 426.816406 C 743.601562 422.644531 750.191406 422.675781 756.199219 426.898438 Z M 653.5 433 C 653.828125 433.550781 653.199219 434 652.101562 434 C 651 434 649.828125 433.550781 649.5 433 C 649.171875 432.449219 649.800781 432 650.898438 432 C 652 432 653.171875 432.449219 653.5 433 Z M 662.75 432.648438 C 661.75 432.90625 660.25 432.90625 659.25 432.648438 C 658.300781 432.40625 659.101562 432.199219 661 432.199219 C 662.898438 432.199219 663.699219 432.40625 662.75 432.648438 Z M 670.898438 435.75 C 670.84375 437.851562 670.449219 440.601562 670 442 C 669.417969 443.816406 669.242188 443 669.351562 439 C 669.488281 433.898438 669.335938 433.507812 667.25 433.601562 C 666.050781 433.652344 665 433.304688 665 432.851562 C 665 432.367188 666.300781 432 668 432 C 670.800781 432 670.992188 432.25 670.898438 435.75 Z M 848.851562 435.300781 C 849.445312 436.035156 850.335938 437.75 850.898438 439.25 C 851.691406 441.351562 851.484375 442.429688 849.898438 444.449219 L 847.898438 447 L 820.300781 447 C 796 447 792.484375 446.808594 790.898438 445.382812 C 788.664062 443.375 788.519531 439.199219 790.585938 436.199219 C 792.085938 434.019531 792.351562 434 819.949219 434 C 841.351562 434 848.042969 434.300781 848.851562 435.300781 Z M 654 438.101562 C 654 438.597656 653.351562 439 652.550781 439 C 651.679688 439 651.324219 438.398438 651.664062 437.5 C 652.25 435.949219 654 436.398438 654 438.101562 Z M 652.699219 443.25 C 652.421875 443.949219 652.199219 443.398438 652.199219 442 C 652.199219 440.601562 652.421875 440.050781 652.699219 440.75 C 652.980469 441.449219 652.980469 442.550781 652.699219 443.25 Z M 824.699219 473.40625 L 827.5 475.800781 L 827.398438 533.050781 L 827.300781 590.300781 L 824.898438 592.109375 C 821.601562 594.597656 819.332031 594.433594 816.398438 591.5 L 814 589.101562 L 814 475.101562 L 816.601562 473.050781 C 820.015625 470.359375 821.199219 470.414062 824.699219 473.40625 Z M 204.101562 477.976562 C 215.171875 481.128906 225.144531 491.5 228.550781 503.398438 C 231.496094 513.699219 228.515625 528.703125 221.914062 536.800781 C 209.824219 551.628906 186.601562 554.648438 170.398438 543.496094 C 160.746094 536.855469 155 525.699219 155 513.601562 C 155 494.800781 167.199219 480.253906 186 476.636719 C 189.484375 475.96875 199.699219 476.722656 204.101562 477.976562 Z M 860 502.714844 C 862.011719 504.519531 863.292969 506.800781 863.648438 509.199219 C 864.125 512.398438 863.796875 513.304688 861.199219 515.898438 C 857.363281 519.734375 853.300781 519.9375 849.199219 516.5 C 845.460938 513.363281 844.476562 508.800781 846.714844 505 C 849.960938 499.5 855.386719 498.566406 860 502.714844 Z M 166.199219 568.53125 C 169.800781 571.867188 169.917969 576.183594 166.5 579.601562 C 163.214844 582.886719 158.480469 582.800781 155.328125 579.398438 C 148.097656 571.601562 158.398438 561.296875 166.199219 568.53125 Z M 262.5 576.402344 C 265.863281 578.601562 269.535156 585.199219 272.902344 595.101562 C 279.980469 615.917969 292.554688 643.199219 304.746094 664.199219 C 307.535156 669 310.296875 674.335938 310.902344 676.101562 C 313.765625 684.398438 310.480469 692.988281 303 696.773438 C 294.191406 701.230469 286.710938 698.699219 279.417969 688.800781 C 263.859375 667.683594 245.414062 627.800781 238.300781 599.898438 C 235.625 589.398438 235.617188 589.253906 237.390625 584.601562 C 241.164062 574.699219 253.65625 570.621094 262.5 576.402344 Z M 205 582 C 206.480469 583.480469 207 585.300781 207 589 L 207 594 L 211.699219 594 C 216.800781 594 220 596.042969 220 599.300781 C 220 602.984375 217.101562 605 211.800781 605 L 207 605 L 207 610.101562 C 207 616.898438 205.726562 619 201.601562 619 C 197.042969 619 195.5 616.800781 195.5 610.300781 L 195.5 605 L 189.898438 605 C 183.601562 605 182 603.886719 182 599.5 C 182 595.074219 183.601562 594 190.199219 594 L 196 594 L 196 588.601562 C 196 580.601562 200.386719 577.386719 205 582 Z M 168 618.457031 C 171.398438 620.210938 172.488281 623.660156 170.566406 626.601562 C 168.539062 629.699219 165.476562 630.160156 162.5 627.808594 C 159.5 625.4375 159.289062 621.710938 162 619 C 164.398438 616.601562 164.398438 616.601562 168 618.457031 Z M 808.601562 631.65625 C 812.65625 633.585938 816.234375 638 817.882812 643.101562 C 820.359375 650.765625 815 659.789062 806.601562 662.097656 C 800.300781 663.828125 795.347656 662.445312 790.5 657.601562 C 785.285156 652.386719 784.027344 647.300781 786.496094 641.398438 C 788.632812 636.300781 790.78125 634.023438 795.5 631.859375 C 800.398438 629.617188 804.195312 629.554688 808.601562 631.65625 Z M 405.0625 653.398438 C 404.148438 654.5 404.179688 654.894531 405.199219 655.25 C 405.929688 655.503906 405.101562 655.699219 403.300781 655.699219 L 400.101562 655.699219 L 402.199219 653.863281 C 404.699219 651.679688 406.765625 651.34375 405.0625 653.398438 Z M 224.800781 657.222656 C 232.597656 662.40625 236.820312 674 234.007812 682.5 C 232.328125 687.585938 227.300781 692.988281 222.101562 695.296875 C 210.386719 700.496094 197.722656 695.101562 192.554688 682.699219 C 188.230469 672.332031 194.398438 659.191406 205.5 655.117188 C 210.800781 653.171875 220.265625 654.203125 224.800781 657.222656 Z M 409.699219 654.601562 C 409.378906 654.921875 408.5 654.96875 407.800781 654.699219 C 406.980469 654.382812 407.199219 654.164062 408.398438 654.101562 C 409.398438 654.046875 410.015625 654.285156 409.699219 654.601562 Z M 421.699219 662.601562 C 421.378906 662.921875 420.5 662.96875 419.800781 662.699219 C 418.980469 662.382812 419.199219 662.164062 420.398438 662.101562 C 421.398438 662.046875 422.015625 662.285156 421.699219 662.601562 Z M 410.699219 680.601562 C 410.417969 680.882812 408.949219 681.296875 407.351562 681.550781 C 405.75 681.804688 405.027344 681.648438 405.699219 681.203125 C 407 680.339844 411.503906 679.796875 410.699219 680.601562 Z M 797.300781 698.601562 C 802.753906 704.054688 799.398438 713 791.898438 713 C 787.601562 713 783 708.554688 783 704.398438 C 783 696.800781 791.894531 693.191406 797.300781 698.601562 Z M 726.699219 702.941406 C 740.601562 705.550781 752.1875 713.007812 760.660156 724.800781 C 768.027344 735.054688 770.488281 742.898438 770.457031 756 C 770.414062 772.800781 766.058594 783.203125 754.101562 795.050781 C 743.152344 805.894531 730.800781 811 715.5 811 C 700.199219 811 687.617188 805.816406 676.898438 795.101562 C 666.207031 784.40625 661 771.699219 661 756.300781 C 661 731.300781 677.460938 710.195312 702.101562 703.605469 C 708.4375 701.910156 719.601562 701.605469 726.699219 702.941406 Z M 339.800781 708.394531 C 343.171875 710.136719 356.5 718.585938 369 726.902344 C 384.496094 737.210938 413.699219 750.574219 435.898438 757.507812 C 440.476562 758.9375 450.550781 761.671875 458.351562 763.601562 C 466.148438 765.527344 473.621094 767.824219 475 768.714844 C 481.347656 772.820312 483.695312 778.199219 482.757812 786.5 C 482.117188 792.199219 479.03125 796.328125 473.398438 799.035156 C 469.175781 801.066406 468.398438 801.128906 460.699219 800.003906 C 426.898438 795.066406 377.511719 775.144531 344.800781 753.25 C 341.101562 750.773438 338 748.3125 338 747.851562 C 338 747.339844 337.679688 747.09375 337.199219 747.234375 C 336.183594 747.53125 324.410156 739 321.417969 735.800781 C 315.804688 729.800781 314.648438 723.398438 317.941406 716.601562 C 321.769531 708.699219 332.558594 704.648438 339.800781 708.394531 Z M 478 713 C 480.390625 715.390625 480.523438 716.898438 478.570312 719.601562 C 477.296875 721.367188 476.050781 721.476562 460.851562 721.148438 C 447.75 720.871094 444.160156 720.496094 442.800781 719.269531 C 440.535156 717.234375 440.496094 715.199219 442.671875 712.800781 C 444.121094 711.199219 446.050781 711 460.148438 711 C 474.648438 711 476.171875 711.171875 478 713 Z M 607.964844 713.199219 C 610.414062 715.808594 610.429688 716 608.453125 718.800781 L 606.898438 721 L 562.5 721 C 523.5 721 517.910156 720.804688 516.535156 719.398438 C 514.539062 717.363281 514.585938 715.101562 516.671875 712.800781 C 518.203125 711.105469 520.898438 711 562.101562 711 C 605.898438 711 605.898438 711 607.964844 713.199219 Z M 642.800781 720.542969 C 645.199219 722.257812 645.753906 726.84375 643.800781 728.800781 C 641.84375 730.753906 637.257812 730.199219 635.542969 727.800781 C 633.472656 724.898438 633.570312 723.429688 636 721 C 638.429688 718.570312 639.898438 718.472656 642.800781 720.542969 Z M 287.699219 729.578125 C 293.652344 734 295 737.398438 295 748 C 295 756.300781 294.695312 758.089844 292.898438 760.398438 C 290.253906 763.800781 286.699219 763.800781 283.300781 760.398438 C 280.933594 758.03125 280.753906 757.300781 281.3125 752.199219 C 281.902344 746.800781 281 743.308594 278.601562 741.726562 C 277.992188 741.324219 263.300781 741 245.898438 741 C 216 741 214.164062 740.894531 211.800781 739.039062 C 207.394531 735.582031 207.601562 729.90625 212.199219 728.035156 C 213.507812 727.503906 229.699219 727.1875 249.699219 727.300781 C 283.699219 727.492188 284.996094 727.570312 287.699219 729.578125 Z M 627.101562 741.761719 C 636.5 748.429688 636.980469 761.917969 628.101562 769.824219 C 620.441406 776.644531 591.300781 788.570312 567.699219 794.542969 C 562.398438 795.886719 556.820312 797.542969 555.398438 798.199219 C 550.34375 800.535156 550.195312 801.699219 550.09375 840.5 C 550 876 549.972656 876.523438 547.898438 878.238281 C 544.863281 880.757812 541.5 880.398438 539.054688 877.300781 C 537.0625 874.78125 537 873.601562 537 839.300781 L 537 803.898438 L 534.5 801.398438 C 531.003906 797.902344 524.320312 798 520.945312 801.601562 C 518.605469 804.09375 518.601562 804.148438 518.550781 829.648438 L 518.5 855.199219 L 516.199219 857.066406 C 513.101562 859.582031 510.199219 859.503906 507.300781 856.824219 L 505 854.699219 L 505 817.800781 C 505 782.5 505.089844 780.726562 507.054688 776.898438 C 509.785156 771.578125 516 768.765625 530 766.523438 C 554.5 762.601562 578.757812 755.148438 601.800781 744.460938 C 615.898438 737.921875 620.929688 737.386719 627.101562 741.761719 Z M 260.5 759.398438 C 262.867188 761.765625 263 762.5 263 773.101562 C 263 782.101562 263.324219 784.664062 264.648438 786.148438 C 266.207031 787.894531 269.050781 788 314.851562 788 C 363.351562 788 363.402344 788.003906 365.699219 790.160156 C 368.566406 792.855469 368.609375 795.699219 365.832031 798.699219 L 363.699219 801 L 260.300781 801 L 257 798.757812 C 250.066406 794.046875 249.707031 792.898438 249.863281 775.800781 C 249.988281 761.601562 250.152344 760.371094 252.101562 758.734375 C 255 756.292969 257.601562 756.5 260.5 759.398438 Z M 679 822 C 681.5 824.5 681.550781 829.234375 679.101562 831.46875 C 677.355469 833.058594 673.398438 833.195312 630.398438 833.148438 C 585.601562 833.101562 583.519531 833.019531 581.730469 831.199219 C 579.277344 828.710938 579.179688 824.601562 581.507812 822 C 583.242188 820.066406 584.851562 820 630.148438 820 C 675.648438 820 677.058594 820.058594 679 822 Z M 331.910156 823.601562 C 334.695312 827.199219 334.53125 829.417969 331.300781 831.957031 C 329.054688 833.722656 327.300781 834 318.398438 834 C 308.5 834 308.019531 833.898438 306.074219 831.398438 C 303.421875 828 303.492188 826.496094 306.441406 823.5 C 308.734375 821.167969 309.601562 821 319.398438 821 C 329.5 821 329.976562 821.097656 331.910156 823.601562 Z M 448.835938 826.398438 C 453.046875 833.898438 460.464844 841.117188 467.601562 844.667969 L 473.699219 847.699219 L 467 850.808594 C 459.339844 854.359375 451.730469 861.898438 447.824219 869.800781 L 445.398438 874.699219 L 443.714844 870 C 441.101562 862.703125 433.601562 854.585938 425.898438 850.714844 L 419.300781 847.398438 L 425.398438 844.457031 C 433.398438 840.59375 441.1875 832.730469 443.566406 826.101562 C 444.574219 823.300781 445.488281 821 445.601562 821 C 445.710938 821 447.148438 823.398438 448.835938 826.398438 Z M 391.179688 827.199219 C 394.078125 830.53125 393.601562 834.644531 390.101562 836.453125 C 388.398438 837.328125 386.578125 838 385.898438 838 C 383.566406 838 381 834.699219 381 831.699219 C 381 825.601562 387.347656 822.796875 391.179688 827.199219 Z M 577.699219 854.199219 C 580.515625 856.84375 580.527344 857.800781 577.789062 860.699219 C 575.121094 863.527344 573.199219 863.558594 570.300781 860.824219 C 567.558594 858.242188 567.496094 857.699219 569.59375 854.5 C 571.621094 851.398438 574.601562 851.289062 577.699219 854.199219 "/>
<path style=" stroke:none;fill-rule:nonzero;fill:rgb(0%,0%,0%);fill-opacity:1;" d="M 722 268.75 C 722.8125 269.046875 725.449219 270.125 727.75 271.101562 C 730.050781 272.074219 732 272.714844 732 272.5 C 732 271.707031 723.699219 268.03125 722.101562 268.117188 C 720.699219 268.1875 720.6875 268.269531 722 268.75 "/>
<path style=" stroke:none;fill-rule:nonzero;fill:rgb(0%,0%,0%);fill-opacity:1;" d="M 700.550781 276.699219 C 700.046875 278.101562 700.179688 278.222656 701.148438 277.25 C 701.851562 276.550781 702.136719 275.757812 701.800781 275.449219 C 701.46875 275.144531 700.910156 275.699219 700.550781 276.699219 "/>
<path style=" stroke:none;fill-rule:nonzero;fill:rgb(0%,0%,0%);fill-opacity:1;" d="M 713.5 278 C 713.117188 278.636719 714.101562 278.765625 716.199219 278.359375 C 720.601562 277.503906 720.972656 277 717.199219 277 C 715.5 277 713.828125 277.453125 713.5 278 "/>
<path style=" stroke:none;fill-rule:nonzero;fill:rgb(0%,0%,0%);fill-opacity:1;" d="M 698.101562 281.148438 C 698.046875 282.042969 697.722656 283.648438 697.398438 284.648438 C 696.816406 286.449219 696.832031 286.449219 697.949219 284.699219 C 698.589844 283.699219 698.898438 282.144531 698.648438 281.199219 C 698.253906 279.699219 698.1875 279.695312 698.101562 281.148438 "/>
<path style=" stroke:none;fill-rule:nonzero;fill:rgb(0%,0%,0%);fill-opacity:1;" d="M 708 282 C 707.394531 283.101562 707.125 284 707.398438 284 C 707.675781 284 708.394531 283.101562 709 282 C 709.605469 280.898438 709.875 280 709.601562 280 C 709.324219 280 708.605469 280.898438 708 282 "/>
<path style=" stroke:none;fill-rule:nonzero;fill:rgb(0%,0%,0%);fill-opacity:1;" d="M 738 283 C 738 283.601562 738.398438 284 739 284 C 739.554688 284 740.046875 285.449219 740.101562 287.25 C 740.15625 289.050781 740.40625 289.695312 740.664062 288.699219 C 741.285156 286.300781 740.21875 282 739 282 C 738.398438 282 738 282.398438 738 283 "/>
<path style=" stroke:none;fill-rule:nonzero;fill:rgb(0%,0%,0%);fill-opacity:1;" d="M 740.101562 294.800781 C 740.035156 296.300781 739.601562 296.855469 738.851562 296.398438 C 738.148438 295.972656 737.953125 296.128906 738.351562 296.800781 C 738.703125 297.398438 738.089844 299.398438 737 301.199219 C 735.910156 303 735 304.953125 735 305.5 C 735 306.050781 736.386719 304.148438 738.101562 301.25 C 739.8125 298.351562 740.976562 295.21875 740.699219 294.25 C 740.328125 292.957031 740.175781 293.101562 740.101562 294.800781 "/>
<path style=" stroke:none;fill-rule:nonzero;fill:rgb(0%,0%,0%);fill-opacity:1;" d="M 730.066406 296.300781 C 728.765625 299.691406 723.5 303 719.398438 303 C 717.601562 303 714.976562 302.015625 713.398438 300.746094 C 710.601562 298.492188 708 297.796875 708 299.300781 C 708 299.71875 708 300.238281 708 300.601562 C 708 300.921875 708.699219 300.628906 709.5 299.976562 C 710.960938 298.785156 711.554688 299.601562 711.128906 302.199219 C 711.058594 302.644531 711.800781 303 712.800781 303 C 713.816406 303 715.601562 303.71875 716.898438 304.648438 C 718.699219 305.941406 719.375 306.027344 720 305.050781 C 720.574219 304.148438 720.980469 304.109375 721.449219 304.898438 C 721.789062 305.472656 721.550781 306 720.949219 306 C 720.046875 306 720.046875 306.300781 720.949219 307.398438 C 721.820312 308.460938 723 308.589844 725.800781 307.9375 C 731 306.726562 731.785156 306.859375 729.5 308.574219 C 728.5 309.324219 728.121094 310 728.699219 310 C 729.308594 310 730.851562 309.105469 732.148438 308 C 733.949219 306.46875 734.183594 305.800781 733.148438 305.148438 C 732.054688 304.460938 732.101562 304.1875 733.398438 303.699219 C 734.371094 303.335938 734.960938 302 734.898438 300.300781 L 734.800781 297.5 L 734 300.5 C 733.546875 302.199219 733.15625 302.742188 733.101562 301.75 C 733.042969 300.75 732.570312 300 732 300 C 730.878906 300 731.054688 303.699219 732.265625 305.601562 C 732.671875 306.238281 731.601562 306.601562 729.300781 306.601562 C 725.800781 306.601562 725.761719 306.5625 727.851562 305.199219 C 729.050781 304.417969 730 303.292969 730 302.648438 C 730 302.035156 729.558594 302.199219 729.050781 303 C 728.226562 304.300781 727.925781 304.3125 726.800781 303.101562 C 725.871094 302.101562 725.855469 301.898438 726.75 302.398438 C 727.449219 302.792969 728 302.746094 728 302.300781 C 728 301.867188 729.109375 300.300781 730.398438 298.898438 C 731.96875 297.199219 732.507812 295.832031 731.949219 294.949219 C 731.320312 293.949219 730.832031 294.300781 730.066406 296.300781 Z M 725.699219 304.601562 C 725.378906 304.921875 724.5 304.96875 723.800781 304.699219 C 722.980469 304.382812 723.199219 304.164062 724.398438 304.101562 C 725.398438 304.046875 726.015625 304.285156 725.699219 304.601562 "/>
<path style=" stroke:none;fill-rule:nonzero;fill:rgb(0%,0%,0%);fill-opacity:1;" d="M 701.152344 305.199219 C 698.878906 307.5 697 310.011719 697 310.75 C 697 311.449219 697.433594 311.835938 697.898438 311.550781 C 698.402344 311.242188 699.019531 311.550781 699.300781 312.25 C 699.683594 313.210938 699.824219 313.199219 699.898438 312.199219 C 699.960938 311.398438 700.480469 311.1875 701.25 311.648438 C 702.132812 312.179688 702.101562 311.898438 701.148438 310.699219 C 700.039062 309.300781 700.011719 308.734375 701 307.5 C 701.640625 306.699219 702.621094 306.257812 703.101562 306.550781 C 703.613281 306.863281 703.769531 306.5 703.460938 305.699219 C 702.769531 303.898438 705.523438 301.441406 706.484375 303 C 706.835938 303.570312 707.550781 304 708.148438 304 C 708.78125 304 708.710938 303.398438 707.976562 302.5 C 706.214844 300.339844 705.804688 300.5 701.152344 305.199219 "/>
<path style=" stroke:none;fill-rule:nonzero;fill:rgb(0%,0%,0%);fill-opacity:1;" d="M 716.5 311 L 708.5 311.601562 L 716.5 311.800781 C 720.898438 311.910156 725.175781 311.550781 726 311 C 727.300781 310.132812 727.300781 310.027344 726 310.199219 C 725.175781 310.308594 720.898438 310.671875 716.5 311 "/>
<path style=" stroke:none;fill-rule:nonzero;fill:rgb(0%,0%,0%);fill-opacity:1;" d="M 697.984375 315.300781 C 697.992188 315.984375 698.386719 317.101562 698.898438 317.898438 C 699.53125 318.886719 699.753906 318.5 699.644531 316.601562 C 699.492188 314 697.957031 312.796875 697.984375 315.300781 "/>
<path style=" stroke:none;fill-rule:nonzero;fill:rgb(0%,0%,0%);fill-opacity:1;" d="M 288.300781 329.75 C 282.300781 330.089844 282.0625 330.207031 281 333.398438 C 280.398438 335.199219 278.808594 337.730469 277.5 338.964844 C 275.300781 341.039062 274.988281 343.753906 277.101562 342.453125 C 277.589844 342.152344 277.703125 341.398438 277.351562 340.800781 C 276.996094 340.199219 277.15625 339.980469 277.699219 340.316406 C 279.160156 341.214844 283.359375 336.300781 282.671875 334.5 C 282.339844 333.632812 282.898438 332.578125 284 332 C 285.5 331.210938 285.996094 331.367188 286.351562 332.75 C 286.773438 334.402344 286.808594 334.398438 286.917969 332.699219 C 287.027344 331 289 330.242188 289 331.898438 C 289 332.378906 290.050781 333.078125 291.25 333.398438 C 293.148438 333.90625 293.265625 334.15625 292 335 C 290.699219 335.867188 290.699219 336 292 336 C 292.898438 336 293.101562 336.300781 292.5 336.75 C 291.941406 337.171875 291.5 338.050781 291.5 338.75 C 291.5 339.449219 291.058594 339.890625 290.5 339.75 C 289.976562 339.621094 289.644531 338.949219 289.800781 338.351562 C 289.957031 337.75 289.597656 336.890625 289.050781 336.550781 C 288.433594 336.167969 288.269531 336.601562 288.648438 337.601562 C 289.109375 338.800781 288.960938 339.09375 288.148438 338.601562 C 287.550781 338.234375 287 338.355469 287 338.851562 C 287 339.367188 287.5 339.96875 288.101562 340.171875 C 289.367188 340.59375 288.300781 344 286.898438 344 C 286.394531 344 285.492188 342.898438 284.851562 341.5 C 283.699219 339 282 338.046875 282 339.898438 C 282 341.300781 276.128906 343.992188 275.457031 342.898438 C 275.121094 342.359375 274.5 342 273.898438 342 C 273.300781 342 273.101562 342.320312 273.398438 342.800781 C 273.664062 343.222656 273.101562 343.660156 272.199219 343.730469 C 260.898438 344.601562 254.382812 345.847656 246.800781 348.597656 C 244.800781 349.320312 242.820312 349.589844 242.351562 349.199219 C 241.882812 348.8125 242.628906 349.800781 244.015625 351.398438 C 250.335938 358.679688 262 360.777344 275.800781 357.113281 C 279.800781 356.050781 282.753906 355.601562 282.441406 356.101562 C 281.65625 357.371094 290.699219 361.304688 292.300781 360.386719 C 293 359.984375 293.199219 360.03125 292.773438 360.5 C 291.867188 361.503906 297.398438 365 299.898438 365 C 302.015625 365 305 361.898438 305 359.699219 C 305 358.003906 298.699219 349.25 296.101562 347.332031 C 290.199219 342.980469 290.40625 343.359375 292.25 340.199219 C 293.765625 337.601562 295.917969 328.667969 294.898438 329.191406 C 294.679688 329.308594 291.699219 329.558594 288.300781 329.75 Z M 283 347 C 283 347.578125 282.351562 348 281.449219 348 C 280.550781 348 280.152344 347.578125 280.5 347 C 280.859375 346.398438 281.480469 346 282.050781 346 C 282.621094 346 283 346.398438 283 347 Z M 260.015625 348.800781 C 260.289062 349.082031 259.101562 349.035156 257.300781 348.699219 C 255.5 348.363281 253.839844 348.515625 253.5 349.050781 C 253.171875 349.566406 251.898438 349.953125 250.699219 349.898438 C 248.792969 349.8125 248.898438 349.621094 251.5 348.453125 C 254.199219 347.246094 258.679688 347.425781 260.015625 348.800781 Z M 265.699219 347.601562 C 265.378906 347.921875 264.5 347.96875 263.800781 347.699219 C 262.980469 347.382812 263.199219 347.164062 264.398438 347.101562 C 265.398438 347.046875 266.015625 347.285156 265.699219 347.601562 Z M 295 350.5 C 293.621094 352.140625 290.300781 352 290.300781 350.300781 C 290.300781 349.601562 290.570312 349.265625 290.949219 349.5 C 291.320312 349.730469 292.199219 349.53125 293 349.035156 C 294.898438 347.863281 296.332031 348.910156 295 350.5 Z M 255.199219 350.957031 C 251.171875 351.929688 252.601562 353.460938 258.699219 354.710938 L 264.5 355.898438 L 259 355.398438 C 255 355.035156 253.910156 355.1875 255 355.953125 C 256.671875 357.125 256 357.347656 253.601562 356.417969 C 252.699219 356.070312 252.285156 355.339844 252.648438 354.75 C 253.0625 354.085938 252.601562 353.9375 251.398438 354.351562 C 249.550781 354.984375 249.550781 354.960938 251.449219 353.5 C 253.277344 352.09375 253.199219 352.035156 250.199219 352.601562 C 248 353.011719 247 352.839844 247 352.050781 C 247 351.449219 246.523438 351.1875 246 351.5 C 245.398438 351.859375 245 351.78125 245 351.300781 C 245 350.863281 247.851562 350.476562 251.25 350.449219 C 254.648438 350.421875 256.449219 350.652344 255.199219 350.957031 Z M 258.515625 352 C 258.15625 352.582031 257.398438 353 256.699219 353 C 255.980469 353 256.101562 352.609375 257 352.023438 C 258.898438 350.789062 259.265625 350.785156 258.515625 352 Z M 287.699219 357.398438 C 287.699219 358.199219 287.304688 358.667969 286.851562 358.398438 C 286.339844 358.101562 286.21875 357.539062 286.546875 357 C 287.398438 355.597656 287.699219 355.699219 287.699219 357.398438 "/>
<path style=" stroke:none;fill-rule:nonzero;fill:rgb(0%,0%,0%);fill-opacity:1;" d="M 631.351562 366.449219 C 631.710938 367.414062 632 375.101562 632 383.601562 L 632 399 L 667.101562 399 L 666.398438 396.699219 C 661.984375 382.199219 647.292969 367.945312 634.101562 365.363281 C 631.101562 364.777344 630.777344 364.90625 631.351562 366.449219 "/>
<path style=" stroke:none;fill-rule:nonzero;fill:rgb(0%,0%,0%);fill-opacity:1;" d="M 499.5 427.6875 C 485.300781 429.515625 469.800781 435.328125 457.800781 443.316406 C 447.144531 450.410156 434.261719 463.898438 427.640625 474.898438 C 410.769531 502.914062 408.570312 539.699219 421.996094 569.300781 C 426.125 578.398438 434.96875 591.226562 442.335938 598.800781 C 472.355469 629.664062 520.601562 637.003906 559.398438 616.605469 C 608.300781 590.902344 626.773438 525.300781 598.878906 476.398438 C 581.632812 446.167969 547.300781 426.640625 512.300781 427.15625 C 506.898438 427.234375 501.152344 427.472656 499.5 427.6875 Z M 532 449.398438 C 535.601562 450.949219 540.464844 452.609375 542.898438 453.113281 C 552.9375 455.203125 568.78125 467.800781 578.226562 481.199219 C 583.441406 488.601562 587.390625 496.566406 589.140625 503.199219 C 590.769531 509.378906 590.5 509.625 575.5 515.890625 L 563.5 520.898438 L 561.164062 513.300781 C 554.199219 490.632812 536.101562 478.015625 512.300781 479.234375 C 504.300781 479.644531 502.28125 480.15625 495.601562 483.464844 C 476.253906 493.042969 464.660156 515.398438 468.050781 536.601562 C 470.847656 554.121094 484.398438 568.757812 502.101562 573.386719 C 507.300781 574.746094 507.402344 574.839844 504.898438 575.820312 C 499.730469 577.847656 485.699219 579.285156 477 578.675781 C 468.398438 578.074219 450.242188 575.292969 448.699219 574.339844 C 447.296875 573.46875 449 572.183594 450.898438 572.679688 C 454.179688 573.527344 453.988281 571.5 450.371094 567 C 442.515625 557.234375 437.070312 541.398438 437.023438 528.199219 C 437.011719 524.199219 436.433594 519.90625 435.75 518.699219 C 434.601562 516.675781 434.449219 516.898438 433.851562 521.5 C 433.4375 524.65625 433.328125 523 433.546875 517 C 434.488281 491.300781 451.484375 466.335938 476.699219 453.621094 C 479.550781 452.183594 486.101562 449.871094 491.199219 448.5 C 499.308594 446.320312 502.101562 446.039062 513 446.300781 C 524 446.5625 526.28125 446.9375 532 449.398438 Z M 503.199219 488.867188 C 506.886719 490.265625 511.613281 495.699219 512.886719 500 C 515.296875 508.136719 510.398438 516.753906 502.101562 518.984375 C 487.699219 522.855469 476.3125 506.105469 485.730469 494.898438 C 490.941406 488.699219 497.128906 486.5625 503.199219 488.867188 Z M 451.601562 570.5 C 452.398438 571.300781 452.65625 572 452.148438 572 C 451.644531 572 450.640625 571.300781 450 570.5 C 449.359375 569.699219 449.105469 569 449.449219 569 C 449.796875 569 450.800781 569.699219 451.601562 570.5 "/>
<path style=" stroke:none;fill-rule:nonzero;fill:rgb(0%,0%,0%);fill-opacity:1;" d="M 370.101562 603.300781 C 369.09375 605 369.085938 605.226562 370.050781 604.300781 C 371.007812 603.382812 371.628906 603.5 372.699219 604.800781 C 373.933594 606.296875 373.957031 606.199219 372.898438 604 C 372.226562 602.601562 371.632812 601.410156 371.550781 601.300781 C 371.46875 601.191406 370.808594 602.101562 370.101562 603.300781 "/>
<path style=" stroke:none;fill-rule:nonzero;fill:rgb(0%,0%,0%);fill-opacity:1;" d="M 387 634.398438 C 387 634.628906 387.75 635.378906 388.75 636.148438 C 390.304688 637.351562 390.34375 637.300781 389.101562 635.699219 C 387.777344 634 387 633.519531 387 634.398438 "/>
<path style=" stroke:none;fill-rule:nonzero;fill:rgb(0%,0%,0%);fill-opacity:1;" d="M 374 655 C 374 655.539062 374.398438 656.140625 375 656.5 C 375.601562 656.859375 375.765625 656.5 375.410156 655.601562 C 374.746094 653.898438 374 653.582031 374 655 "/>
<path style=" stroke:none;fill-rule:nonzero;fill:rgb(0%,0%,0%);fill-opacity:1;" d="M 373.5 658 C 374.488281 659.101562 375.523438 660 375.800781 660 C 376.074219 660 375.488281 659.101562 374.5 658 C 373.511719 656.898438 372.476562 656 372.199219 656 C 371.925781 656 372.511719 656.898438 373.5 658 "/>
<path style=" stroke:none;fill-rule:nonzero;fill:rgb(0%,0%,0%);fill-opacity:1;" d="M 378.5 658 C 378.859375 658.601562 379.28125 659 379.550781 659 C 379.820312 659 380 658.601562 380 658 C 380 657.429688 379.550781 657 378.949219 657 C 378.351562 657 378.15625 657.429688 378.5 658 "/>
<path style=" stroke:none;fill-rule:nonzero;fill:rgb(0%,0%,0%);fill-opacity:1;" d="M 381 660 C 381 660.570312 381.449219 661 382.050781 661 C 382.648438 661 382.84375 660.570312 382.5 660 C 382.140625 659.398438 381.71875 659 381.449219 659 C 381.179688 659 381 659.398438 381 660 "/>
<path style=" stroke:none;fill-rule:nonzero;fill:rgb(0%,0%,0%);fill-opacity:1;" d="M 377.5 661 C 377.859375 661.601562 378.28125 662 378.550781 662 C 378.820312 662 379 661.601562 379 661 C 379 660.429688 378.550781 660 377.949219 660 C 377.351562 660 377.15625 660.429688 377.5 661 "/>
<path style=" stroke:none;fill-rule:nonzero;fill:rgb(0%,0%,0%);fill-opacity:1;" d="M 383.355469 663.199219 C 384.011719 665.199219 383.085938 665.535156 381.199219 663.988281 C 380.566406 663.464844 380.699219 663.800781 381.488281 664.699219 C 383.351562 666.824219 385.476562 665.300781 383.855469 663 C 382.984375 661.765625 382.898438 661.800781 383.355469 663.199219 "/>
<path style=" stroke:none;fill-rule:nonzero;fill:rgb(0%,0%,0%);fill-opacity:1;" d="M 201.050781 512.601562 C 201.011719 516.398438 200.488281 518.160156 199 519.5 C 197.898438 520.488281 197.292969 521.75 197.648438 522.300781 C 198.019531 522.871094 197.851562 523.019531 197.25 522.648438 C 196.671875 522.292969 195.050781 522.429688 193.648438 522.949219 C 191.558594 523.730469 190.550781 523.441406 188.050781 521.351562 C 186.402344 519.972656 184.585938 517.351562 184.101562 515.648438 C 183.613281 513.949219 183.15625 513.328125 183.109375 514.300781 C 182.941406 517.574219 186.300781 522.394531 190.5 524.902344 C 192.339844 526.003906 192.300781 526.046875 190 525.449219 C 188.601562 525.085938 187.808594 525.128906 188.199219 525.550781 C 188.582031 525.960938 190.398438 526.460938 192.199219 526.648438 C 194.601562 526.90625 195.089844 526.726562 194 526 C 192.699219 525.132812 192.699219 525 194 525 C 194.832031 525 196.699219 524.378906 198.199219 523.601562 C 200.5 522.40625 200.984375 522.421875 201.46875 523.699219 C 202.039062 525.21875 204 524.601562 204 522.898438 C 204 522.300781 203.601562 522.140625 203 522.5 C 202.398438 522.859375 202 522.699219 202 522.101562 C 202 520.8125 203 520.71875 204.800781 521.832031 C 205.871094 522.496094 205.398438 523.3125 202.800781 525.300781 C 200.929688 526.730469 197.851562 528.574219 195.949219 529.398438 C 194.050781 530.226562 193.265625 530.917969 194.199219 530.941406 C 196.5 530.992188 201 528.914062 201 527.800781 C 201 527.261719 201.359375 527.121094 201.898438 527.453125 C 203.125 528.207031 207.09375 523 206.285156 521.699219 C 205.910156 521.101562 205.507812 519.601562 205.398438 518.398438 C 205.289062 517.1875 204.28125 514.25 203.148438 511.851562 L 201.101562 507.5 L 201.050781 512.601562 "/>
<path style=" stroke:none;fill-rule:nonzero;fill:rgb(0%,0%,0%);fill-opacity:1;" d="M 206.601562 515.601562 C 207.003906 521.699219 207.859375 522.359375 207.769531 516.5 C 207.730469 514 207.378906 511.695312 207 511.449219 C 206.621094 511.203125 206.4375 513.101562 206.601562 515.601562 "/>
<path style=" stroke:none;fill-rule:nonzero;fill:rgb(0%,0%,0%);fill-opacity:1;" d="M 175.199219 514 C 175.199219 515.398438 175.421875 515.949219 175.699219 515.25 C 175.980469 514.550781 175.980469 513.449219 175.699219 512.75 C 175.421875 512.050781 175.199219 512.601562 175.199219 514 "/>
<path style=" stroke:none;fill-rule:nonzero;fill:rgb(0%,0%,0%);fill-opacity:1;" d="M 177.820312 522.5 C 179.652344 526.101562 186.851562 531.050781 190.199219 531.015625 C 190.921875 531.007812 189.5 530 187 528.75 C 184.5 527.5 181.234375 525.167969 179.648438 523.5 C 177.84375 521.601562 177.171875 521.234375 177.820312 522.5 "/>
<path style=" stroke:none;fill-rule:nonzero;fill:rgb(0%,0%,0%);fill-opacity:1;" d="M 197.5 524.960938 C 196.300781 525.429688 196.003906 525.949219 196.699219 526.371094 C 198 527.167969 201 526.140625 201 524.898438 C 201 523.898438 200.199219 523.910156 197.5 524.960938 "/>
<path style=" stroke:none;fill-rule:nonzero;fill:rgb(0%,0%,0%);fill-opacity:1;" d="M 725.75 739.148438 C 726.449219 739.851562 727.242188 740.136719 727.550781 739.800781 C 727.855469 739.46875 727.300781 738.910156 726.300781 738.550781 C 724.898438 738.046875 724.777344 738.179688 725.75 739.148438 "/>
<path style=" stroke:none;fill-rule:nonzero;fill:rgb(0%,0%,0%);fill-opacity:1;" d="M 693 748.398438 C 693 749.800781 693.351562 751.121094 693.800781 751.398438 C 694.253906 751.683594 694.414062 750.601562 694.171875 748.898438 C 693.65625 745.300781 693 745.019531 693 748.398438 "/>
<path style=" stroke:none;fill-rule:nonzero;fill:rgb(0%,0%,0%);fill-opacity:1;" d="M 734.800781 747.699219 C 735.5 747.96875 736.378906 747.921875 736.699219 747.601562 C 737.015625 747.285156 736.398438 747.046875 735.398438 747.101562 C 734.199219 747.164062 733.980469 747.382812 734.800781 747.699219 "/>
<path style=" stroke:none;fill-rule:nonzero;fill:rgb(0%,0%,0%);fill-opacity:1;" d="M 726.5 748.96875 C 725.371094 749.4375 723.5 749.578125 722.199219 749.289062 C 720 748.800781 719.148438 750.382812 721 751.515625 C 722.839844 752.640625 722.101562 755.722656 719.601562 757.351562 C 716.753906 759.203125 711.800781 759.464844 708.898438 757.914062 C 707.601562 757.222656 707 757.246094 707 758 C 707 758.617188 706.449219 758.792969 705.75 758.398438 C 705.050781 758.007812 704.835938 758.050781 705.261719 758.5 C 706.292969 759.582031 708 759.988281 715.5 760.929688 C 723.199219 761.898438 726.25 763.199219 728.339844 766.398438 C 730.832031 770.222656 730.398438 772.457031 726.5 775.886719 C 721.101562 780.640625 713.28125 782.285156 709.300781 779.507812 C 707 777.902344 705.210938 778.9375 706.554688 781.101562 C 706.988281 781.800781 706.800781 781.996094 706.101562 781.566406 C 704.867188 780.8125 696.09375 785.898438 696.03125 787.398438 C 696.015625 787.835938 697.601562 787.195312 699.5 786 C 701.398438 784.804688 703 784.097656 703 784.449219 C 703 784.804688 704 784.402344 705.199219 783.566406 C 708 781.613281 712.960938 781.542969 715.5 783.421875 C 716.757812 784.351562 718.800781 784.734375 721 784.449219 C 724 784.0625 724.144531 784.128906 722 784.898438 C 719.601562 785.765625 719.59375 785.804688 721.800781 785.898438 C 724.699219 786.019531 730.496094 783.597656 731.601562 781.800781 C 732.175781 780.867188 731.851562 780.921875 730.449219 782 C 728.648438 783.386719 728.601562 783.367188 729.800781 781.800781 C 730.488281 780.898438 731.78125 780.359375 732.550781 780.648438 C 733.457031 780.992188 734 780.601562 734 779.601562 C 734 778.699219 734.480469 778 735.101562 778 C 736.992188 778 740.289062 769.101562 739.617188 765.800781 C 738.703125 761.300781 734.992188 755.820312 733.300781 756.464844 C 732.5 756.769531 732.109375 756.65625 732.386719 756.199219 C 733.09375 755.03125 729.601562 752.304688 727.898438 752.699219 C 726.195312 753.097656 729.699219 751.46875 732.398438 750.605469 C 733.398438 750.285156 734.015625 749.714844 733.699219 749.398438 C 732.550781 748.253906 726 751.398438 726 753.101562 C 726 754.398438 725.527344 754.71875 724.300781 754.25 C 723.199219 753.828125 723.023438 753.460938 723.800781 753.199219 C 724.5 752.96875 724.769531 752.425781 724.449219 751.898438 C 724.121094 751.359375 724.238281 751 724.75 751 C 725.195312 751 726.5 750.320312 727.5 749.566406 C 729.675781 747.921875 729.398438 747.757812 726.5 748.96875 "/>
<path style=" stroke:none;fill-rule:nonzero;fill:rgb(0%,0%,0%);fill-opacity:1;" d="M 703 752 C 703 752.539062 703.398438 753.140625 704 753.5 C 704.601562 753.859375 704.765625 753.5 704.410156 752.601562 C 703.746094 750.898438 703 750.582031 703 752 "/>
<path style=" stroke:none;fill-rule:nonzero;fill:rgb(0%,0%,0%);fill-opacity:1;" d="M 694 753.5 C 694 754.03125 694.46875 755.199219 695 756 C 695.53125 756.800781 696 757.03125 696 756.5 C 696 755.96875 695.53125 754.800781 695 754 C 694.46875 753.199219 694 752.96875 694 753.5 "/>
<path style=" stroke:none;fill-rule:nonzero;fill:rgb(0%,0%,0%);fill-opacity:1;" d="M 697.976562 760.601562 C 697.941406 762.210938 702.101562 765.746094 705.5 766.996094 C 708.300781 768.027344 708.394531 767.992188 706.898438 766.5 C 705.984375 765.585938 704.550781 764.769531 703.550781 764.601562 C 702.601562 764.4375 700.929688 763.199219 699.898438 761.898438 C 698.871094 760.601562 697.988281 760.003906 697.976562 760.601562 "/>
<path style=" stroke:none;fill-rule:nonzero;fill:rgb(0%,0%,0%);fill-opacity:1;" d="M 711.25 768.699219 C 712.25 768.984375 713.535156 768.984375 714.25 768.699219 C 714.957031 768.417969 714.199219 768.199219 712.5 768.199219 C 710.800781 768.199219 710.257812 768.417969 711.25 768.699219 "/>
<path style=" stroke:none;fill-rule:nonzero;fill:rgb(0%,0%,0%);fill-opacity:1;" d="M 708.75 787.699219 C 709.949219 787.914062 712.050781 787.914062 713.25 787.699219 C 714.5 787.476562 713.5 787.300781 711 787.300781 C 708.5 787.300781 707.5 787.476562 708.75 787.699219 "/>
<path style=" stroke:none;fill-rule:nonzero;fill:rgb(0%,0%,0%);fill-opacity:1;" d="M 293 350.023438 C 292.101562 350.609375 291.980469 351 292.699219 351 C 293.398438 351 294.15625 350.582031 294.515625 350 C 295.265625 348.785156 294.898438 348.789062 293 350.023438 "/>
<path style=" stroke:none;fill-rule:nonzero;fill:rgb(0%,0%,0%);fill-opacity:1;" d="M 502.601562 455.96875 C 481.199219 459.832031 464.503906 471.484375 453.121094 490.5 C 446.390625 501.742188 444.5 509.199219 444.5 524.5 C 444.5 538.699219 446.710938 549.691406 451.539062 559.5 C 452.917969 562.300781 453.691406 563.621094 453.300781 562.5 C 452.914062 561.394531 452.445312 553.800781 452.25 545.5 C 451.957031 533 452.246094 528.917969 453.972656 521 C 457.132812 506.5 463.277344 494.722656 472.5 485.5 C 485.03125 472.96875 498.398438 466.636719 521 462.527344 C 526.199219 461.582031 532.535156 460.234375 535 459.550781 L 539.5 458.300781 L 534.5 457.0625 C 528.101562 455.476562 508.960938 454.820312 502.601562 455.96875 "/>
</g>
</svg>
